<?xml version="1.0" encoding="UTF-8" standalone="no"?>
<!DOCTYPE svg PUBLIC "-//W3C//DTD SVG 1.1//EN"
 "http://www.w3.org/Graphics/SVG/1.1/DTD/svg11.dtd">
<!-- Generated by graphviz version 2.43.0 (0)
 -->
<!-- Title: %3 Pages: 1 -->
<svg width="1137pt" height="404pt"
 viewBox="0.00 0.00 1136.71 404.00" xmlns="http://www.w3.org/2000/svg" xmlns:xlink="http://www.w3.org/1999/xlink">
<g id="graph0" class="graph" transform="scale(1 1) rotate(0) translate(4 400)">
<title>%3</title>
<polygon fill="white" stroke="transparent" points="-4,4 -4,-400 1132.71,-400 1132.71,4 -4,4"/>
<!-- 0 -->
<g id="node1" class="node">
<title>0</title>
<ellipse fill="none" stroke="black" cx="300.27" cy="-90" rx="252.66" ry="18"/>
<text text-anchor="middle" x="300.27" y="-86.3" font-family="Times,serif" font-size="14.00">(lambda col: get_cycled_feature_value_sin(col+1, 7))</text>
</g>
<!-- 10 -->
<g id="node11" class="node">
<title>10</title>
<ellipse fill="none" stroke="black" cx="300.27" cy="-18" rx="48.19" ry="18"/>
<text text-anchor="middle" x="300.27" y="-14.3" font-family="Times,serif" font-size="14.00">Rename</text>
</g>
<!-- 0&#45;&gt;10 -->
<g id="edge8" class="edge">
<title>0&#45;&gt;10</title>
<path fill="none" stroke="black" d="M300.27,-71.7C300.27,-63.98 300.27,-54.71 300.27,-46.11"/>
<polygon fill="black" stroke="black" points="303.77,-46.1 300.27,-36.1 296.77,-46.1 303.77,-46.1"/>
</g>
<!-- 5 -->
<g id="node2" class="node">
<title>5</title>
<ellipse fill="none" stroke="black" cx="300.27" cy="-162" rx="48.19" ry="18"/>
<text text-anchor="middle" x="300.27" y="-158.3" font-family="Times,serif" font-size="14.00">Rename</text>
</g>
<!-- 5&#45;&gt;0 -->
<g id="edge1" class="edge">
<title>5&#45;&gt;0</title>
<path fill="none" stroke="black" d="M300.27,-143.7C300.27,-135.98 300.27,-126.71 300.27,-118.11"/>
<polygon fill="black" stroke="black" points="303.77,-118.1 300.27,-108.1 296.77,-118.1 303.77,-118.1"/>
</g>
<!-- 1 -->
<g id="node3" class="node">
<title>1</title>
<ellipse fill="none" stroke="black" cx="300.27" cy="-234" rx="230.16" ry="18"/>
<text text-anchor="middle" x="300.27" y="-230.3" font-family="Times,serif" font-size="14.00">nvt.ops.LambdaOp(lambda col: col.dt.weekday)</text>
</g>
<!-- 1&#45;&gt;5 -->
<g id="edge4" class="edge">
<title>1&#45;&gt;5</title>
<path fill="none" stroke="black" d="M300.27,-215.7C300.27,-207.98 300.27,-198.71 300.27,-190.11"/>
<polygon fill="black" stroke="black" points="303.77,-190.1 300.27,-180.1 296.77,-190.1 303.77,-190.1"/>
</g>
<!-- 9 -->
<g id="node4" class="node">
<title>9</title>
<ellipse fill="none" stroke="black" cx="300.27" cy="-306" rx="48.19" ry="18"/>
<text text-anchor="middle" x="300.27" y="-302.3" font-family="Times,serif" font-size="14.00">Rename</text>
</g>
<!-- 9&#45;&gt;1 -->
<g id="edge2" class="edge">
<title>9&#45;&gt;1</title>
<path fill="none" stroke="black" d="M300.27,-287.7C300.27,-279.98 300.27,-270.71 300.27,-262.11"/>
<polygon fill="black" stroke="black" points="303.77,-262.1 300.27,-252.1 296.77,-262.1 303.77,-262.1"/>
</g>
<!-- 2 -->
<g id="node5" class="node">
<title>2</title>
<ellipse fill="none" stroke="black" cx="689.27" cy="-234" rx="58.49" ry="18"/>
<text text-anchor="middle" x="689.27" y="-230.3" font-family="Times,serif" font-size="14.00">Normalize</text>
</g>
<!-- 7 -->
<g id="node9" class="node">
<title>7</title>
<ellipse fill="none" stroke="black" cx="689.27" cy="-162" rx="48.19" ry="18"/>
<text text-anchor="middle" x="689.27" y="-158.3" font-family="Times,serif" font-size="14.00">Rename</text>
</g>
<!-- 2&#45;&gt;7 -->
<g id="edge6" class="edge">
<title>2&#45;&gt;7</title>
<path fill="none" stroke="black" d="M689.27,-215.7C689.27,-207.98 689.27,-198.71 689.27,-190.11"/>
<polygon fill="black" stroke="black" points="692.77,-190.1 689.27,-180.1 685.77,-190.1 692.77,-190.1"/>
</g>
<!-- 6 -->
<g id="node6" class="node">
<title>6</title>
<ellipse fill="none" stroke="black" cx="689.27" cy="-306" rx="40.89" ry="18"/>
<text text-anchor="middle" x="689.27" y="-302.3" font-family="Times,serif" font-size="14.00">LogOp</text>
</g>
<!-- 6&#45;&gt;2 -->
<g id="edge3" class="edge">
<title>6&#45;&gt;2</title>
<path fill="none" stroke="black" d="M689.27,-287.7C689.27,-279.98 689.27,-270.71 689.27,-262.11"/>
<polygon fill="black" stroke="black" points="692.77,-262.1 689.27,-252.1 685.77,-262.1 692.77,-262.1"/>
</g>
<!-- 3 -->
<g id="node7" class="node">
<title>3</title>
<ellipse fill="none" stroke="black" cx="689.27" cy="-378" rx="70.69" ry="18"/>
<text text-anchor="middle" x="689.27" y="-374.3" font-family="Times,serif" font-size="14.00">ItemRecency</text>
</g>
<!-- 3&#45;&gt;6 -->
<g id="edge5" class="edge">
<title>3&#45;&gt;6</title>
<path fill="none" stroke="black" d="M689.27,-359.7C689.27,-351.98 689.27,-342.71 689.27,-334.11"/>
<polygon fill="black" stroke="black" points="692.77,-334.1 689.27,-324.1 685.77,-334.1 692.77,-334.1"/>
</g>
<!-- 4 -->
<g id="node8" class="node">
<title>4</title>
<ellipse fill="none" stroke="black" cx="300.27" cy="-378" rx="300.05" ry="18"/>
<text text-anchor="middle" x="300.27" y="-374.3" font-family="Times,serif" font-size="14.00">nvt.ops.LambdaOp(lambda col: cudf.to_datetime(col, unit=&#39;s&#39;))</text>
</g>
<!-- 4&#45;&gt;9 -->
<g id="edge7" class="edge">
<title>4&#45;&gt;9</title>
<path fill="none" stroke="black" d="M300.27,-359.7C300.27,-351.98 300.27,-342.71 300.27,-334.11"/>
<polygon fill="black" stroke="black" points="303.77,-334.1 300.27,-324.1 296.77,-334.1 303.77,-334.1"/>
</g>
<!-- 8 -->
<g id="node10" class="node">
<title>8</title>
<ellipse fill="none" stroke="black" cx="938.27" cy="-378" rx="59.59" ry="18"/>
<text text-anchor="middle" x="938.27" y="-374.3" font-family="Times,serif" font-size="14.00">Categorify</text>
</g>
<!-- 12 -->
<g id="node13" class="node">
<title>12</title>
<ellipse fill="none" stroke="black" cx="938.27" cy="-306" rx="190.37" ry="18"/>
<text text-anchor="middle" x="938.27" y="-302.3" font-family="Times,serif" font-size="14.00">nvt.ops.LambdaOp(lambda col: col +1)</text>
</g>
<!-- 8&#45;&gt;12 -->
<g id="edge10" class="edge">
<title>8&#45;&gt;12</title>
<path fill="none" stroke="black" d="M938.27,-359.7C938.27,-351.98 938.27,-342.71 938.27,-334.11"/>
<polygon fill="black" stroke="black" points="941.77,-334.1 938.27,-324.1 934.77,-334.1 941.77,-334.1"/>
</g>
<!-- 11 -->
<g id="node12" class="node">
<title>11</title>
<ellipse fill="none" stroke="black" cx="938.27" cy="-234" rx="27" ry="18"/>
<text text-anchor="middle" x="938.27" y="-230.3" font-family="Times,serif" font-size="14.00">+</text>
</g>
<!-- 13 -->
<g id="node14" class="node">
<title>13</title>
<ellipse fill="none" stroke="black" cx="938.27" cy="-162" rx="77.19" ry="18"/>
<text text-anchor="middle" x="938.27" y="-158.3" font-family="Times,serif" font-size="14.00">output cols=[]</text>
</g>
<!-- 11&#45;&gt;13 -->
<g id="edge11" class="edge">
<title>11&#45;&gt;13</title>
<path fill="none" stroke="black" d="M938.27,-215.7C938.27,-207.98 938.27,-198.71 938.27,-190.11"/>
<polygon fill="black" stroke="black" points="941.77,-190.1 938.27,-180.1 934.77,-190.1 941.77,-190.1"/>
</g>
<!-- 12&#45;&gt;11 -->
<g id="edge9" class="edge">
<title>12&#45;&gt;11</title>
<path fill="none" stroke="black" d="M938.27,-287.7C938.27,-279.98 938.27,-270.71 938.27,-262.11"/>
<polygon fill="black" stroke="black" points="941.77,-262.1 938.27,-252.1 934.77,-262.1 941.77,-262.1"/>
</g>
</g>
</svg>
